<svg width="24" height="24" viewBox="0 0 24 24" fill="none" xmlns="http://www.w3.org/2000/svg">
<path d="M12.285 2.2506C12.2696 2.25074 12.2542 2.25129 12.2387 2.25222C12.1733 2.25705 12.1089 2.27066 12.0471 2.29268C12.0004 2.3095 11.9554 2.331 11.9129 2.35687L4.11108 6.86092C4.00129 6.92432 3.91012 7.01551 3.84674 7.12532C3.78335 7.23512 3.74999 7.35968 3.75 7.48646C3.75 7.49134 3.75032 7.49686 3.75049 7.50206C3.75032 7.50775 3.75049 7.51344 3.75049 7.51929V16.5143C3.75046 16.645 3.78589 16.7732 3.853 16.8854C3.9201 16.9975 4.01637 17.0893 4.13155 17.1511L11.9302 21.6536C11.9448 21.6619 11.9595 21.6696 11.9741 21.677V21.6786C11.9961 21.6892 12.0186 21.6986 12.0415 21.7069C12.0415 21.7077 12.0497 21.7093 12.0513 21.7101C12.074 21.7182 12.0968 21.7245 12.1204 21.73C12.1285 21.7308 12.1293 21.7324 12.1334 21.7333C12.1561 21.7381 12.1797 21.7424 12.2032 21.7451C12.2032 21.7455 12.2114 21.7459 12.2146 21.7459C12.239 21.7484 12.2642 21.75 12.2885 21.75C12.3129 21.75 12.3381 21.7484 12.3625 21.7459C12.3625 21.7455 12.3706 21.7452 12.3739 21.7451C12.3974 21.7427 12.4207 21.7387 12.4437 21.7333C12.4519 21.7324 12.4527 21.7316 12.4567 21.73C12.48 21.7245 12.5031 21.7178 12.5258 21.7101C12.5258 21.7093 12.5339 21.7077 12.5355 21.7069C12.5585 21.6986 12.581 21.6892 12.603 21.6787V21.677C12.6178 21.6697 12.6325 21.6619 12.6469 21.6537L20.4458 17.1511C20.5609 17.0894 20.6572 16.9976 20.7243 16.8854C20.7914 16.7733 20.8268 16.6451 20.8268 16.5144V7.51384C20.8268 7.50653 20.8263 7.49987 20.8261 7.49288H20.8263V7.48638C20.8263 7.38203 20.8036 7.27893 20.7599 7.18418C20.7162 7.08943 20.6525 7.00528 20.5731 6.93753C20.565 6.93103 20.5577 6.92437 20.5495 6.91795C20.5495 6.91633 20.5414 6.91389 20.5414 6.91227C20.5137 6.89112 20.4846 6.87197 20.4541 6.85498L12.6567 2.35289C12.5427 2.28446 12.4121 2.24886 12.2792 2.25003L12.285 2.2506ZM12.2932 4.0806C12.3517 4.0806 12.4104 4.0958 12.463 4.1261L17.774 7.1925C18.0006 7.32331 18.0006 7.65018 17.774 7.781L12.4629 10.8474C12.4112 10.8772 12.3527 10.8929 12.293 10.8929C12.2334 10.8929 12.1748 10.8772 12.1231 10.8474L6.81209 7.781C6.58556 7.65026 6.58548 7.32331 6.81209 7.1925L12.1233 4.1261C12.1749 4.09634 12.2335 4.08065 12.2931 4.0806H12.2932ZM5.72804 9.32776C5.78937 9.32687 5.84977 9.34275 5.90273 9.37367L11.2035 12.4341C11.255 12.4638 11.2978 12.5066 11.3276 12.5581C11.3573 12.6096 11.373 12.668 11.373 12.7275V18.8478C11.373 19.1088 11.0905 19.2719 10.8644 19.1414L5.56384 16.081C5.51231 16.0512 5.46952 16.0084 5.43976 15.9569C5.41001 15.9054 5.39435 15.8469 5.39435 15.7874V9.66715C5.39435 9.4715 5.55319 9.33077 5.72804 9.32776ZM18.8581 9.32776C19.0327 9.33101 19.1917 9.47142 19.1917 9.66715V15.7873C19.1917 15.9084 19.1267 16.0204 19.0222 16.081L13.7215 19.1414C13.4956 19.2719 13.213 19.1088 13.213 18.8477V12.7275C13.213 12.6065 13.278 12.4946 13.3825 12.434L18.6831 9.37359C18.7361 9.34266 18.7966 9.32678 18.858 9.32768L18.8581 9.32776Z" fill="#2188FF"/>
</svg>
