<svg width="24" height="21" viewBox="0 0 24 21" fill="none" xmlns="http://www.w3.org/2000/svg">
<path d="M22.539 7.4255C21.9698 6.07814 21.1445 4.85402 20.109 3.821C19.076 2.78549 17.8519 1.96024 16.5045 1.391C15.1047 0.798687 13.6214 0.5 12.09 0.5C10.5586 0.5 9.07528 0.798687 7.6755 1.391C6.32814 1.96024 5.10402 2.78549 4.071 3.821C3.03549 4.85402 2.21024 6.07814 1.641 7.4255C1.04869 8.82528 0.75 10.3086 0.75 11.84C0.75 15.199 2.22572 18.363 4.79747 20.5247L4.8405 20.5602C4.98731 20.6817 5.17209 20.75 5.36194 20.75H18.8206C19.0104 20.75 19.1952 20.6817 19.342 20.5602L19.3851 20.5247C21.9543 18.363 23.43 15.199 23.43 11.84C23.43 10.3086 23.1288 8.82528 22.539 7.4255ZM18.4029 18.8263H5.77706C4.79898 17.9443 4.01726 16.8666 3.48263 15.6631C2.948 14.4595 2.67241 13.157 2.67375 11.84C2.67375 9.32394 3.65334 6.95975 5.43281 5.18281C7.21228 3.40334 9.57647 2.42375 12.09 2.42375C14.6061 2.42375 16.9702 3.40334 18.7472 5.18281C20.5267 6.96228 21.5062 9.32647 21.5062 11.84C21.5062 14.513 20.3798 17.0417 18.4029 18.8263ZM14.9123 8.33422C14.8743 8.29653 14.8229 8.27539 14.7693 8.27539C14.7158 8.27539 14.6644 8.29653 14.6263 8.33422L12.4874 10.4731C12.0141 10.3466 11.4901 10.4681 11.118 10.8402C10.9862 10.9717 10.8816 11.1279 10.8103 11.2999C10.739 11.4719 10.7022 11.6563 10.7022 11.8425C10.7022 12.0287 10.739 12.2131 10.8103 12.3851C10.8816 12.5571 10.9862 12.7134 11.118 12.8449C11.2495 12.9767 11.4058 13.0813 11.5778 13.1526C11.7498 13.2239 11.9342 13.2607 12.1204 13.2607C12.3066 13.2607 12.491 13.2239 12.663 13.1526C12.835 13.0813 12.9912 12.9767 13.1227 12.8449C13.299 12.6691 13.4258 12.45 13.4903 12.2095C13.5547 11.9691 13.5545 11.7159 13.4898 11.4755L15.6287 9.33659C15.7072 9.25813 15.7072 9.12903 15.6287 9.05056L14.9123 8.33422ZM11.5331 5.765H12.6469C12.7582 5.765 12.8494 5.67387 12.8494 5.5625V3.5375C12.8494 3.42613 12.7582 3.335 12.6469 3.335H11.5331C11.4217 3.335 11.3306 3.42613 11.3306 3.5375V5.5625C11.3306 5.67387 11.4217 5.765 11.5331 5.765ZM18.1144 11.2831V12.3969C18.1144 12.5083 18.2055 12.5994 18.3169 12.5994H20.3419C20.4532 12.5994 20.5444 12.5083 20.5444 12.3969V11.2831C20.5444 11.1718 20.4532 11.0806 20.3419 11.0806H18.3169C18.2055 11.0806 18.1144 11.1718 18.1144 11.2831ZM18.4358 6.2915L17.6486 5.50428C17.6106 5.4666 17.5592 5.44546 17.5056 5.44546C17.452 5.44546 17.4007 5.4666 17.3626 5.50428L15.9299 6.93697C15.8922 6.97503 15.8711 7.02642 15.8711 7.07998C15.8711 7.13355 15.8922 7.18494 15.9299 7.223L16.7171 8.01022C16.7956 8.08869 16.9247 8.08869 17.0032 8.01022L18.4358 6.57753C18.5143 6.49906 18.5143 6.36997 18.4358 6.2915ZM6.82753 5.50428C6.78947 5.4666 6.73808 5.44546 6.68452 5.44546C6.63096 5.44546 6.57956 5.4666 6.5415 5.50428L5.75428 6.2915C5.7166 6.32956 5.69545 6.38096 5.69545 6.43452C5.69545 6.48808 5.7166 6.53947 5.75428 6.57753L7.18697 8.01022C7.26544 8.08869 7.39453 8.08869 7.473 8.01022L8.26022 7.223C8.33869 7.14453 8.33869 7.01544 8.26022 6.93697L6.82753 5.50428ZM5.76187 11.0806H3.73687C3.6255 11.0806 3.53437 11.1718 3.53437 11.2831V12.3969C3.53437 12.5083 3.6255 12.5994 3.73687 12.5994H5.76187C5.87325 12.5994 5.96437 12.5083 5.96437 12.3969V11.2831C5.96437 11.1718 5.87325 11.0806 5.76187 11.0806Z" fill="#2188FF"/>
</svg>
