<svg width="16" height="17" viewBox="0 0 16 17" fill="none" xmlns="http://www.w3.org/2000/svg">
<path fill-rule="evenodd" clip-rule="evenodd" d="M7.875 2C5.18563 2 3 4.03125 3 6.46875C3 10.1412 7.875 15 7.875 15C7.875 15 12.75 10.1412 12.75 6.46875C12.75 4.03125 10.5644 2 7.875 2ZM7.875 13.8219C6.36375 12.1725 3.8125 8.8575 3.8125 6.46875C3.8125 4.45375 5.64062 2.8125 7.875 2.8125C8.96375 2.8125 9.99563 3.2025 10.7675 3.9175C11.515 4.61625 11.9375 5.51813 11.9375 6.46875C11.9375 8.8575 9.38625 12.1725 7.875 13.8219ZM9.5 6.46875C9.5 7.37063 8.77688 8.09375 7.875 8.09375C6.97312 8.09375 6.25 7.37063 6.25 6.46875C6.25 5.56687 6.97312 4.84375 7.875 4.84375C8.77688 4.84375 9.5 5.56687 9.5 6.46875Z" fill="#2188FF"/>
</svg>
