<svg width="20" height="20" viewBox="0 0 20 20" fill="none" xmlns="http://www.w3.org/2000/svg">
<path d="M17.9625 10H16.825C16.7356 10 16.6625 10.0731 16.6625 10.1625V16.6625H3.3375V3.3375H9.8375C9.92688 3.3375 10 3.26437 10 3.175V2.0375C10 1.94812 9.92688 1.875 9.8375 1.875H2.525C2.16547 1.875 1.875 2.16547 1.875 2.525V17.475C1.875 17.8345 2.16547 18.125 2.525 18.125H17.475C17.8345 18.125 18.125 17.8345 18.125 17.475V10.1625C18.125 10.0731 18.0519 10 17.9625 10Z" fill="#FA4549"/>
<path d="M6.82922 10.4652L6.79062 12.8803C6.78859 13.0611 6.93484 13.2094 7.11562 13.2094H7.12375L9.52062 13.1505C9.56125 13.1484 9.60187 13.1322 9.63031 13.1037L18.0783 4.67406C18.1412 4.61109 18.1412 4.5075 18.0783 4.44453L15.5534 1.92172C15.5209 1.88922 15.4803 1.875 15.4377 1.875C15.395 1.875 15.3544 1.89125 15.3219 1.92172L6.87594 10.3514C6.8466 10.3821 6.82991 10.4227 6.82922 10.4652ZM8.11906 10.9445L15.4377 3.64219L16.3558 4.55828L9.03312 11.8647L8.10484 11.887L8.11906 10.9445Z" fill="#FA4549"/>
</svg>
