<svg width="20" height="20" viewBox="0 0 20 20" fill="none" xmlns="http://www.w3.org/2000/svg">
<path d="M9.01775 1.42859H2.14275C1.74766 1.42859 1.42847 1.74779 1.42847 2.14287V9.01787C1.42847 9.11609 1.50882 9.19645 1.60704 9.19645H9.01775C9.11597 9.19645 9.19632 9.11609 9.19632 9.01787V1.60716C9.19632 1.50895 9.11597 1.42859 9.01775 1.42859ZM7.76775 7.76787H2.85704V2.85716H7.76775V7.76787ZM4.6874 6.11609H5.9374C6.03561 6.11609 6.11597 6.03573 6.11597 5.93752V4.68752C6.11597 4.5893 6.03561 4.50895 5.9374 4.50895H4.6874C4.58918 4.50895 4.50882 4.5893 4.50882 4.68752V5.93752C4.50882 6.03573 4.58918 6.11609 4.6874 6.11609ZM9.01775 10.8036H1.60704C1.50882 10.8036 1.42847 10.8839 1.42847 10.9822V17.8572C1.42847 18.2522 1.74766 18.5714 2.14275 18.5714H9.01775C9.11597 18.5714 9.19632 18.4911 9.19632 18.3929V10.9822C9.19632 10.8839 9.11597 10.8036 9.01775 10.8036ZM7.76775 17.1429H2.85704V12.2322H7.76775V17.1429ZM4.6874 15.4911H5.9374C6.03561 15.4911 6.11597 15.4107 6.11597 15.3125V14.0625C6.11597 13.9643 6.03561 13.8839 5.9374 13.8839H4.6874C4.58918 13.8839 4.50882 13.9643 4.50882 14.0625V15.3125C4.50882 15.4107 4.58918 15.4911 4.6874 15.4911ZM17.857 1.42859H10.982C10.8838 1.42859 10.8035 1.50895 10.8035 1.60716V9.01787C10.8035 9.11609 10.8838 9.19645 10.982 9.19645H18.3928C18.491 9.19645 18.5713 9.11609 18.5713 9.01787V2.14287C18.5713 1.74779 18.2521 1.42859 17.857 1.42859ZM17.1428 7.76787H12.232V2.85716H17.1428V7.76787ZM14.0624 6.11609H15.3124C15.4106 6.11609 15.491 6.03573 15.491 5.93752V4.68752C15.491 4.5893 15.4106 4.50895 15.3124 4.50895H14.0624C13.9642 4.50895 13.8838 4.5893 13.8838 4.68752V5.93752C13.8838 6.03573 13.9642 6.11609 14.0624 6.11609ZM18.3928 10.8036H17.3213C17.2231 10.8036 17.1428 10.8839 17.1428 10.9822V13.9732H15.4017V10.9822C15.4017 10.8839 15.3213 10.8036 15.2231 10.8036H10.982C10.8838 10.8036 10.8035 10.8839 10.8035 10.9822V18.3929C10.8035 18.4911 10.8838 18.5714 10.982 18.5714H12.0535C12.1517 18.5714 12.232 18.4911 12.232 18.3929V12.9464H13.9731V15.2232C13.9731 15.3214 14.0535 15.4018 14.1517 15.4018H18.3928C18.491 15.4018 18.5713 15.3214 18.5713 15.2232V10.9822C18.5713 10.8839 18.491 10.8036 18.3928 10.8036ZM15.2231 17.1429H14.1517C14.0535 17.1429 13.9731 17.2232 13.9731 17.3214V18.3929C13.9731 18.4911 14.0535 18.5714 14.1517 18.5714H15.2231C15.3213 18.5714 15.4017 18.4911 15.4017 18.3929V17.3214C15.4017 17.2232 15.3213 17.1429 15.2231 17.1429ZM18.3928 17.1429H17.3213C17.2231 17.1429 17.1428 17.2232 17.1428 17.3214V18.3929C17.1428 18.4911 17.2231 18.5714 17.3213 18.5714H18.3928C18.491 18.5714 18.5713 18.4911 18.5713 18.3929V17.3214C18.5713 17.2232 18.491 17.1429 18.3928 17.1429Z" fill="white"/>
</svg>
