<svg width="16" height="17" viewBox="0 0 16 17" fill="none" xmlns="http://www.w3.org/2000/svg">
<path fill-rule="evenodd" clip-rule="evenodd" d="M4.64592 14.854C4.59935 14.8075 4.56241 14.7523 4.5372 14.6916C4.512 14.6308 4.49902 14.5657 4.49902 14.5C4.49902 14.4342 4.512 14.3691 4.5372 14.3083C4.56241 14.2476 4.59935 14.1924 4.64592 14.146L10.2929 8.49996L4.64592 2.85396C4.59943 2.80747 4.56255 2.75228 4.53739 2.69154C4.51223 2.63081 4.49928 2.5657 4.49928 2.49996C4.49928 2.43422 4.51223 2.36912 4.53739 2.30838C4.56255 2.24764 4.59943 2.19245 4.64592 2.14596C4.6924 2.09947 4.74759 2.0626 4.80833 2.03744C4.86907 2.01228 4.93417 1.99933 4.99992 1.99933C5.06566 1.99933 5.13076 2.01228 5.1915 2.03744C5.25224 2.0626 5.30743 2.09947 5.35392 2.14596L11.3539 8.14596C11.4005 8.19241 11.4374 8.24758 11.4626 8.30833C11.4878 8.36907 11.5008 8.43419 11.5008 8.49996C11.5008 8.56573 11.4878 8.63085 11.4626 8.69159C11.4374 8.75234 11.4005 8.80751 11.3539 8.85396L5.35392 14.854C5.30747 14.9005 5.2523 14.9375 5.19155 14.9627C5.13081 14.9879 5.06568 15.0009 4.99992 15.0009C4.93415 15.0009 4.86903 14.9879 4.80828 14.9627C4.74754 14.9375 4.69236 14.9005 4.64592 14.854Z" fill="#6E7781"/>
</svg>
