<svg width="20" height="20" viewBox="0 0 20 20" fill="none" xmlns="http://www.w3.org/2000/svg">
<path d="M19.2143 12.5379L17.7522 11.2879C17.8214 10.8638 17.8571 10.4308 17.8571 9.99776C17.8571 9.56472 17.8214 9.13169 17.7522 8.70758L19.2143 7.45758C19.3246 7.36318 19.4035 7.23744 19.4406 7.09709C19.4777 6.95674 19.4711 6.80842 19.4219 6.67187L19.4018 6.61383C18.9993 5.48889 18.3966 4.44605 17.6228 3.53571L17.5826 3.48883C17.4887 3.37846 17.3636 3.29911 17.2237 3.26126C17.0839 3.2234 16.9358 3.22881 16.7991 3.27678L14.9844 3.92187C14.3147 3.37276 13.567 2.93972 12.7589 2.63615L12.4085 0.738831C12.382 0.596068 12.3128 0.464729 12.2099 0.362263C12.1071 0.259797 11.9755 0.191055 11.8326 0.16517L11.7723 0.154009C10.6094 -0.0558123 9.38616 -0.0558123 8.22322 0.154009L8.16295 0.16517C8.02009 0.191055 7.88848 0.259797 7.78561 0.362263C7.68275 0.464729 7.6135 0.596068 7.58706 0.738831L7.23438 2.64508C6.43279 2.94872 5.68631 3.38152 5.02456 3.92633L3.19643 3.27678C3.05975 3.22843 2.91159 3.22283 2.77165 3.2607C2.6317 3.29858 2.50659 3.37815 2.41295 3.48883L2.37277 3.53571C1.59988 4.4467 0.997272 5.48936 0.593755 6.61383L0.573665 6.67187C0.473219 6.95088 0.555808 7.26338 0.781255 7.45758L2.26117 8.72097C2.19197 9.14062 2.15849 9.56919 2.15849 9.99553C2.15849 10.4241 2.19197 10.8527 2.26117 11.2701L0.781255 12.5335C0.670977 12.6279 0.59205 12.7536 0.554969 12.894C0.517887 13.0343 0.524408 13.1826 0.573665 13.3192L0.593755 13.3772C0.997772 14.5022 1.59599 15.5402 2.37277 16.4553L2.41295 16.5022C2.50682 16.6126 2.63193 16.6919 2.7718 16.7298C2.91166 16.7677 3.05971 16.7622 3.19643 16.7143L5.02456 16.0647C5.68974 16.6116 6.43304 17.0446 7.23438 17.346L7.58706 19.2522C7.6135 19.395 7.68275 19.5263 7.78561 19.6288C7.88848 19.7313 8.02009 19.8 8.16295 19.8259L8.22322 19.837C9.39685 20.048 10.5987 20.048 11.7723 19.837L11.8326 19.8259C11.9755 19.8 12.1071 19.7313 12.2099 19.6288C12.3128 19.5263 12.382 19.395 12.4085 19.2522L12.7589 17.3549C13.5666 17.0521 14.3186 16.6177 14.9844 16.0692L16.7991 16.7143C16.9358 16.7626 17.084 16.7682 17.2239 16.7304C17.3638 16.6925 17.489 16.6129 17.5826 16.5022L17.6228 16.4553C18.3996 15.5379 18.9978 14.5022 19.4018 13.3772L19.4219 13.3192C19.5223 13.0446 19.4397 12.7321 19.2143 12.5379ZM16.1674 8.97097C16.2232 9.30803 16.2522 9.65401 16.2522 9.99999C16.2522 10.346 16.2232 10.692 16.1674 11.029L16.0201 11.9241L17.6875 13.3504C17.4347 13.9328 17.1157 14.484 16.7366 14.9933L14.6652 14.2589L13.9643 14.8348C13.4308 15.2723 12.8371 15.6161 12.1942 15.8571L11.3438 16.1763L10.9442 18.3415C10.3138 18.4129 9.6773 18.4129 9.04688 18.3415L8.64733 16.1719L7.80358 15.8482C7.16742 15.6071 6.5759 15.2634 6.04688 14.8281L5.34599 14.25L3.26117 14.9911C2.8817 14.4799 2.56474 13.9286 2.31027 13.3482L3.99554 11.9085L3.85045 11.0156C3.79688 10.683 3.76786 10.3393 3.76786 9.99999C3.76786 9.65847 3.79465 9.31696 3.85045 8.98437L3.99554 8.09151L2.31027 6.65178C2.5625 6.06919 2.8817 5.52008 3.26117 5.00892L5.34599 5.74999L6.04688 5.17187C6.5759 4.7366 7.16742 4.39285 7.80358 4.15178L8.64956 3.83258L9.04911 1.66294C9.67634 1.59151 10.317 1.59151 10.9464 1.66294L11.346 3.82812L12.1964 4.14731C12.8371 4.38838 13.433 4.73213 13.9665 5.16963L14.6674 5.74553L16.7388 5.01115C17.1183 5.52231 17.4353 6.07365 17.6897 6.65401L16.0223 8.08035L16.1674 8.97097ZM10 5.84821C7.83036 5.84821 6.07143 7.60713 6.07143 9.77678C6.07143 11.9464 7.83036 13.7053 10 13.7053C12.1696 13.7053 13.9286 11.9464 13.9286 9.77678C13.9286 7.60713 12.1696 5.84821 10 5.84821ZM11.7679 11.5446C11.536 11.7772 11.2604 11.9616 10.957 12.0872C10.6536 12.2129 10.3284 12.2773 10 12.2768C9.33259 12.2768 8.70536 12.0156 8.23215 11.5446C7.99961 11.3128 7.81521 11.0372 7.68956 10.7338C7.56392 10.4304 7.49949 10.1052 7.5 9.77678C7.5 9.10937 7.76117 8.48213 8.23215 8.00892C8.70536 7.53571 9.33259 7.27678 10 7.27678C10.6674 7.27678 11.2946 7.53571 11.7679 8.00892C12.0004 8.24079 12.1848 8.51635 12.3104 8.81975C12.4361 9.12315 12.5005 9.44839 12.5 9.77678C12.5 10.4442 12.2388 11.0714 11.7679 11.5446Z" fill="#2188FF"/>
</svg>
