<svg width="20" height="20" viewBox="0 0 20 20" fill="none" xmlns="http://www.w3.org/2000/svg">
<path d="M17.7452 5.55766L14.4423 2.25484C14.29 2.1025 14.1031 1.99078 13.9 1.92984V1.875H2.525C2.16547 1.875 1.875 2.16547 1.875 2.525V17.475C1.875 17.8345 2.16547 18.125 2.525 18.125H17.475C17.8345 18.125 18.125 17.8345 18.125 17.475V6.47578C18.125 6.13047 17.9889 5.80141 17.7452 5.55766ZM7.4 3.3375H12.6V5.45H7.4V3.3375ZM16.6625 16.6625H3.3375V3.3375H6.1V6.1C6.1 6.45953 6.39047 6.75 6.75 6.75H13.25C13.6095 6.75 13.9 6.45953 13.9 6.1V3.78031L16.6625 6.54281V16.6625ZM10 8.57812C8.38516 8.57812 7.075 9.88828 7.075 11.5031C7.075 13.118 8.38516 14.4281 10 14.4281C11.6148 14.4281 12.925 13.118 12.925 11.5031C12.925 9.88828 11.6148 8.57812 10 8.57812ZM10 13.1281C9.10219 13.1281 8.375 12.4009 8.375 11.5031C8.375 10.6053 9.10219 9.87812 10 9.87812C10.8978 9.87812 11.625 10.6053 11.625 11.5031C11.625 12.4009 10.8978 13.1281 10 13.1281Z" fill="white"/>
</svg>
