<svg width="24" height="24" viewBox="0 0 24 24" fill="none" xmlns="http://www.w3.org/2000/svg">
<path d="M4.82953 7.07143L3.21436 12.0375V20.7857H20.7858V12.0375L19.1706 7.07143H4.82953ZM15.9644 15.1071C15.9644 15.225 15.8679 15.3214 15.7501 15.3214H12.8572V18.2143C12.8572 18.3321 12.7608 18.4286 12.6429 18.4286H11.3572C11.2394 18.4286 11.1429 18.3321 11.1429 18.2143V15.3214H8.25007C8.13221 15.3214 8.03578 15.225 8.03578 15.1071V13.8214C8.03578 13.7036 8.13221 13.6071 8.25007 13.6071H11.1429V10.7143C11.1429 10.5964 11.2394 10.5 11.3572 10.5H12.6429C12.7608 10.5 12.8572 10.5964 12.8572 10.7143V13.6071H15.7501C15.8679 13.6071 15.9644 13.7036 15.9644 13.8214V15.1071Z" fill="white"/>
<path d="M15.5 13.5H12.8V10.8C12.8 10.69 12.71 10.6 12.6 10.6H11.4C11.29 10.6 11.2 10.69 11.2 10.8V13.5H8.5C8.39 13.5 8.3 13.59 8.3 13.7V14.9C8.3 15.01 8.39 15.1 8.5 15.1H11.2V17.8C11.2 17.91 11.29 18 11.4 18H12.6C12.71 18 12.8 17.91 12.8 17.8V15.1H15.5C15.61 15.1 15.7 15.01 15.7 14.9V13.7C15.7 13.59 15.61 13.5 15.5 13.5Z" fill="#2188FF"/>
<path d="M20.18 6.1525C20.1278 5.99202 20.0262 5.85215 19.8897 5.75292C19.7532 5.65368 19.5888 5.60016 19.42 5.6H17.6V2.8C17.6 2.3575 17.2425 2 16.8 2H7.2C6.7575 2 6.4 2.3575 6.4 2.8V5.6H4.58C4.41114 5.59977 4.24657 5.65315 4.10999 5.75244C3.97341 5.85173 3.87187 5.99181 3.82 6.1525L2 11.75V21.2C2 21.6425 2.3575 22 2.8 22H21.2C21.6425 22 22 21.6425 22 21.2V11.75L20.18 6.1525ZM8.2 3.8H15.8V5.6H8.2V3.8ZM20.2 20.2H3.8V12.035L5.3075 7.4H18.6925L20.2 12.035V20.2Z" fill="#2188FF"/>
</svg>
