<svg width="17" height="18" viewBox="0 0 17 18" fill="none" xmlns="http://www.w3.org/2000/svg">
<path d="M7.11006 14.0445C8.44467 14.0445 9.67101 13.5588 10.6584 12.7496L15.9415 15.7981L15.9408 15.7974L11.9488 11.3076C12.6644 10.2142 13.0839 8.87208 13.0839 7.42561C13.0839 3.82398 10.4602 0.806763 7.11006 0.806763C3.75991 0.806763 1.13623 3.82398 1.13623 7.42561C1.13623 11.0272 3.75991 14.0445 7.11006 14.0445ZM7.11006 12.0735C4.89376 12.0735 3.00482 10.0464 3.00482 7.42561C3.00482 4.80486 4.89376 2.7777 7.11006 2.7777C9.32635 2.7777 11.2153 4.80486 11.2153 7.42561C11.2153 10.0464 9.32635 12.0735 7.11006 12.0735Z" fill="#D9D9D9" stroke="#D0D7DE" stroke-linejoin="round"/>
</svg>
