<svg width="25" height="22" viewBox="0 0 25 22" fill="none" xmlns="http://www.w3.org/2000/svg">
<path d="M11.1703 11.7529C9.51511 11.3231 7.64606 12.1463 6.92663 13.6035C6.19505 15.0898 6.90232 16.7387 8.57451 17.2779C10.305 17.8364 12.3467 16.9816 13.0564 15.3763C13.7539 13.8075 12.8814 12.1949 11.1703 11.7529ZM9.90643 15.5463C9.57102 16.083 8.84916 16.3162 8.30716 16.0709C7.77244 15.828 7.61446 15.2039 7.9523 14.6818C8.28528 14.162 8.9804 13.9289 9.51755 14.1548C10.062 14.3855 10.237 15.0048 9.90643 15.5463ZM11.0123 14.1256C10.8908 14.3345 10.621 14.434 10.412 14.3466C10.2054 14.2616 10.1398 14.0285 10.2564 13.8245C10.3779 13.6205 10.6356 13.5233 10.8422 13.6035C11.0536 13.6812 11.129 13.9168 11.0123 14.1256ZM19.1423 9.33651C19.5069 9.45308 19.8958 9.25394 20.0149 8.89209C20.3017 8.00324 20.1218 6.9881 19.451 6.24497C19.1326 5.89235 18.7268 5.62973 18.2746 5.48351C17.8223 5.33728 17.3395 5.31261 16.8747 5.41197C16.7857 5.43086 16.7014 5.4671 16.6265 5.51859C16.5516 5.57009 16.4876 5.63585 16.4382 5.71209C16.3887 5.78833 16.3548 5.87357 16.3384 5.96293C16.3219 6.05228 16.3233 6.144 16.3424 6.23282C16.3614 6.32156 16.3977 6.40568 16.4494 6.48035C16.501 6.55502 16.5668 6.61878 16.6431 6.66796C16.7195 6.71715 16.8048 6.7508 16.8941 6.76698C16.9835 6.78315 17.0752 6.78155 17.1639 6.76225C17.6111 6.66753 18.0948 6.80596 18.4253 7.16781C18.5814 7.34014 18.689 7.55068 18.7373 7.77803C18.7855 8.00539 18.7726 8.24146 18.7 8.46223C18.6713 8.54865 18.6601 8.63987 18.6668 8.73066C18.6735 8.82145 18.6982 8.91001 18.7393 8.99125C18.7804 9.07249 18.8372 9.14482 18.9063 9.20407C18.9755 9.26332 19.0557 9.30833 19.1423 9.33651ZM21.568 4.33369C20.1899 2.80614 18.1556 2.22328 16.2768 2.62157C16.1734 2.64341 16.0753 2.68548 15.9882 2.74535C15.9011 2.80523 15.8267 2.88172 15.7694 2.97043C15.712 3.05914 15.6727 3.15831 15.6539 3.26224C15.635 3.36616 15.6369 3.47279 15.6594 3.57599C15.6814 3.67933 15.7236 3.77732 15.7835 3.86438C15.8434 3.95143 15.9199 4.02584 16.0086 4.08335C16.0973 4.14086 16.1965 4.18034 16.3005 4.19955C16.4045 4.21875 16.5112 4.21729 16.6146 4.19527C17.9514 3.91113 19.3951 4.32641 20.377 5.41197C21.3565 6.49753 21.6214 7.97895 21.2034 9.2758C21.0673 9.69837 21.2982 10.1501 21.7211 10.2885C22.144 10.4245 22.5961 10.1938 22.7322 9.77365V9.77122C23.3179 7.94009 22.9485 5.85883 21.568 4.33369ZM17.774 10.6844C17.4774 10.5969 17.2757 10.5362 17.4313 10.1476C17.7667 9.30494 17.8007 8.57637 17.4386 8.05909C16.758 7.08524 14.8914 7.13867 12.7525 8.03238C12.7525 8.03238 12.0817 8.32623 12.2519 7.79438C12.58 6.73796 12.5314 5.85397 12.0185 5.34154C10.8592 4.1807 7.77487 5.38526 5.12806 8.02752C3.14963 10.0068 2 12.1051 2 13.9192C2 17.3896 6.45268 19.5 10.8106 19.5C16.5223 19.5 20.3211 16.185 20.3211 13.55C20.3211 11.9593 18.9795 11.0584 17.774 10.6844ZM10.8227 18.2566C7.34711 18.599 4.34544 17.0302 4.1194 14.7473C3.89336 12.4669 6.53046 10.3395 10.0061 9.99708C13.4817 9.65222 16.4834 11.2235 16.7094 13.5039C16.933 15.7843 14.2983 17.9117 10.8227 18.2566Z" fill="#2188FF"/>
</svg>
