<svg width="24" height="24" viewBox="0 0 24 24" fill="none" xmlns="http://www.w3.org/2000/svg">
<path d="M2.6585 14.2501C2.25319 14.2085 1.84988 14.3482 1.54895 14.6341C1.24779 14.92 1.07713 15.3254 1.07914 15.75V19.1249C1.07914 20.1196 1.45809 21.0734 2.13293 21.7765C2.80753 22.4799 3.72254 22.8749 4.67701 22.8749H7.85399C8.2204 22.8825 8.57627 22.7483 8.85337 22.4985C9.13044 22.2484 9.30887 21.9002 9.35405 21.5212C9.39396 21.0987 9.25994 20.6784 8.98563 20.3647C8.71132 20.0508 8.32234 19.8729 7.91501 19.875H4.67705C4.27952 19.875 3.95728 19.5392 3.95728 19.1248V15.8138C3.96456 15.4318 3.83582 15.0607 3.59614 14.7718C3.35622 14.4831 3.02217 14.2972 2.6585 14.2501Z" fill="#1A90FF"/>
<path d="M20.3677 9.75005C20.7731 9.79164 21.1764 9.65196 21.4773 9.36605C21.7785 9.08014 21.9491 8.67471 21.9471 8.25015V4.87527C21.9471 3.88051 21.5681 2.92673 20.8933 2.2236C20.2187 1.5202 19.3037 1.12525 18.3492 1.12525H15.1113C14.704 1.12315 14.3149 1.30103 14.0407 1.61493C13.7664 1.92856 13.6323 2.34892 13.6722 2.7714C13.7174 3.15044 13.8959 3.49857 14.1729 3.74869C14.45 3.9985 14.8061 4.13269 15.1725 4.1251H18.3493C18.5403 4.1251 18.7232 4.2041 18.8582 4.34483C18.9933 4.48556 19.069 4.67625 19.069 4.87531V8.18665C19.0618 8.56855 19.1905 8.93947 19.4302 9.22829C19.6701 9.51707 20.0041 9.70296 20.3677 9.75005Z" fill="#1A90FF"/>
<path d="M5.03695 10.5001C5.87391 10.5008 6.69789 10.2829 7.4332 9.86625L13.5604 16.2561C12.7182 17.8826 12.7583 19.8508 13.6663 21.4383C14.5743 23.0259 16.2161 23.9987 17.9894 24C18.5037 24 18.9787 23.7141 19.2357 23.2501C19.4927 22.786 19.4927 22.2142 19.2357 21.7502C18.9787 21.2859 18.5036 21 17.9894 21C17.417 21 16.8679 20.763 16.463 20.3411C16.058 19.9191 15.8306 19.3468 15.8306 18.7501C15.8306 18.1535 16.058 17.5811 16.463 17.1592C16.8679 16.737 17.417 16.5 17.9894 16.5C18.5619 16.5 19.111 16.737 19.5158 17.1592C19.9206 17.5811 20.148 18.1535 20.148 18.7501C20.148 19.2861 20.4223 19.7812 20.8678 20.0491C21.313 20.317 21.8616 20.317 22.3068 20.0491C22.752 19.7812 23.0263 19.286 23.0263 18.7501C23.0258 16.9008 22.0917 15.1882 20.5676 14.2415C19.0434 13.2951 17.1539 13.2541 15.5931 14.1338L9.46595 7.74386C10.3082 6.11735 10.268 4.1492 9.36004 2.56166C8.45203 0.974134 6.81018 0.00133929 5.03688 0C4.52265 0 4.04759 0.285905 3.7906 0.749937C3.53361 1.21397 3.53361 1.78581 3.7906 2.24981C4.04759 2.71412 4.5227 3.00002 5.03688 3.00002C5.60934 3.00002 6.15845 3.23701 6.56327 3.65893C6.96834 4.08086 7.19572 4.65322 7.19572 5.24988C7.19572 5.84655 6.96834 6.41888 6.56327 6.84082C6.15846 7.26302 5.60932 7.50001 5.03688 7.50001C4.46442 7.50001 3.91531 7.26302 3.51048 6.84082C3.10567 6.41889 2.8783 5.84653 2.8783 5.24988C2.8783 4.7139 2.60399 4.21876 2.15853 3.9509C1.71331 3.68304 1.16468 3.68304 0.71951 3.9509C0.274338 4.21876 0 4.71396 0 5.24988C0 6.64227 0.530544 7.97762 1.47519 8.96226C2.41984 9.94691 3.70105 10.5001 5.03695 10.5001Z" fill="#1A90FF"/>
</svg>
