<svg width="24" height="24" viewBox="0 0 24 24" fill="none" xmlns="http://www.w3.org/2000/svg">
<path d="M21.555 12H20.19C20.0828 12 19.995 12.0877 19.995 12.195V19.995H4.005V4.005H11.805C11.9123 4.005 12 3.91725 12 3.81V2.445C12 2.33775 11.9123 2.25 11.805 2.25H3.03C2.59856 2.25 2.25 2.59856 2.25 3.03V20.97C2.25 21.4014 2.59856 21.75 3.03 21.75H20.97C21.4014 21.75 21.75 21.4014 21.75 20.97V12.195C21.75 12.0877 21.6623 12 21.555 12Z" fill="white"/>
<path d="M8.19506 12.5582L8.14875 15.4564C8.14631 15.6733 8.32181 15.8512 8.53875 15.8512H8.5485L11.4247 15.7806C11.4735 15.7781 11.5222 15.7586 11.5564 15.7245L21.6939 5.60887C21.7695 5.53331 21.7695 5.409 21.6939 5.33344L18.6641 2.30606C18.6251 2.26706 18.5764 2.25 18.5252 2.25C18.474 2.25 18.4253 2.2695 18.3863 2.30606L8.25112 12.4217C8.21592 12.4585 8.1959 12.5073 8.19506 12.5582ZM9.74287 13.1334L18.5252 4.37062L19.6269 5.46994L10.8398 14.2376L9.72581 14.2644L9.74287 13.1334Z" fill="white"/>
</svg>
